<?xml version="1.0" encoding="UTF-8"?><svg id="a" xmlns="http://www.w3.org/2000/svg" viewBox="0 0 295.65 72.73"><defs><style>.b{fill:#fff;}.c{fill:#36aae1;}</style></defs><g><path class="c" d="M17.89,1.06C1.51,1.06,.69,16,.69,16v54.67H18.91v-16.99h29.89v16.99h19.45V1.06H17.89Zm30.51,33.99H19.51l.02-16.59s-.62-5.01,5.01-5.01h23.86v21.6Z"/><polygon class="c" points="75.83 1.06 128.25 1.06 99.99 41.6 128.25 41.6 128.25 53.47 75.09 53.47 103.86 12.96 75.83 12.96 75.83 1.06"/><polygon class="c" points="130.55 1.06 178.46 1.06 178.46 12.57 161.57 12.57 161.57 53.47 146.98 53.47 146.98 12.88 130.55 12.88 130.55 1.06"/><polygon class="c" points="181.84 1.06 181.84 53.47 231.44 53.47 231.44 41.9 195.81 41.9 195.81 32.69 222.07 32.69 222.07 20.56 195.81 20.56 195.81 12.26 231.44 12.26 231.44 1.06 181.84 1.06"/><polygon class="c" points="236.05 1.06 236.05 53.47 250.79 53.47 250.79 33.92 265.53 53.47 283.34 53.47 264.61 27.27 283.34 1.06 265.07 1.06 250.79 20.56 250.79 1.06 236.05 1.06"/><rect class="b" x="75.09" y="57.29" width="209.79" height="1.84"/><g><path class="b" d="M171.44,63c.45-.09,1.36-.16,2.22-.16,1.05,0,1.69,.1,2.24,.43,.54,.28,.92,.8,.92,1.49s-.4,1.31-1.25,1.62v.02c.87,.23,1.51,.89,1.51,1.87,0,.69-.31,1.23-.79,1.61-.55,.44-1.48,.69-2.99,.69-.84,0-1.48-.06-1.86-.11v-7.47Zm1.7,2.91h.56c.9,0,1.39-.37,1.39-.93s-.44-.88-1.22-.88c-.38,0-.59,.02-.74,.05v1.77Zm0,3.37c.17,.02,.37,.02,.67,.02,.78,0,1.46-.29,1.46-1.09s-.69-1.07-1.54-1.07h-.58v2.14Z"/><path class="b" d="M188.98,62.9v4.38c0,1.31,.49,1.98,1.38,1.98s1.4-.63,1.4-1.98v-4.38h1.72v4.26c0,2.35-1.19,3.46-3.17,3.46s-3.05-1.06-3.05-3.48v-4.24h1.73Z"/><path class="b" d="M204.02,68.73c.47,.24,1.17,.48,1.91,.48,.79,0,1.21-.33,1.21-.82s-.36-.75-1.27-1.07c-1.27-.44-2.09-1.14-2.09-2.24,0-1.3,1.08-2.29,2.87-2.29,.86,0,1.49,.18,1.94,.38l-.38,1.38c-.3-.14-.85-.36-1.59-.36s-1.11,.34-1.11,.73c0,.49,.43,.7,1.41,1.07,1.34,.5,1.97,1.2,1.97,2.27,0,1.28-.98,2.36-3.07,2.36-.87,0-1.72-.22-2.15-.46l.35-1.43Z"/><path class="b" d="M220.8,62.9v7.6h-1.72v-7.6h1.72Z"/><path class="b" d="M231.3,70.5v-7.6h2.01l1.58,2.79c.45,.8,.9,1.75,1.24,2.61h.03c-.11-1-.15-2.03-.15-3.17v-2.22h1.59v7.6h-1.81l-1.63-2.93c-.45-.81-.95-1.79-1.32-2.68h-.04c.04,1.02,.07,2.09,.07,3.33v2.29h-1.58Z"/><path class="b" d="M252.62,67.29h-2.8v1.8h3.13v1.41h-4.85v-7.6h4.69v1.41h-2.97v1.58h2.8v1.4Z"/><path class="b" d="M263.19,68.73c.47,.24,1.17,.48,1.9,.48,.79,0,1.21-.33,1.21-.82s-.36-.75-1.28-1.07c-1.26-.44-2.08-1.14-2.08-2.24,0-1.3,1.08-2.29,2.87-2.29,.86,0,1.49,.18,1.94,.38l-.38,1.38c-.31-.14-.85-.36-1.59-.36s-1.1,.34-1.1,.73c0,.49,.43,.7,1.41,1.07,1.35,.5,1.98,1.2,1.98,2.27,0,1.28-.98,2.36-3.07,2.36-.87,0-1.73-.22-2.16-.46l.35-1.43Z"/><path class="b" d="M278.3,68.73c.46,.24,1.17,.48,1.91,.48,.79,0,1.21-.33,1.21-.82s-.36-.75-1.28-1.07c-1.26-.44-2.08-1.14-2.08-2.24,0-1.3,1.08-2.29,2.87-2.29,.86,0,1.49,.18,1.94,.38l-.38,1.38c-.3-.14-.85-.36-1.59-.36s-1.11,.34-1.11,.73c0,.49,.43,.7,1.41,1.07,1.34,.5,1.97,1.2,1.97,2.27,0,1.28-.98,2.36-3.07,2.36-.86,0-1.72-.22-2.15-.46l.35-1.43Z"/></g></g><g><path class="b" d="M289.41,1.1c-2.45,0-4.37,1.91-4.37,4.35s1.92,4.35,4.37,4.35,4.37-1.91,4.37-4.35-1.92-4.35-4.37-4.35Zm3.47,4.35c0,1.9-1.56,3.45-3.47,3.45s-3.47-1.55-3.47-3.45,1.56-3.45,3.47-3.45,3.47,1.55,3.47,3.45Z"/><path class="b" d="M291.62,4.33c0-.89-.6-1.35-1.77-1.35h-2.14V7.86h.9v-2.13h.59l1.39,2.13h1.08l-1.41-2.15c.88-.09,1.37-.57,1.37-1.38Zm-3.01-.45h1.11c.46,0,1,.08,1,.44,0,.13-.04,.23-.11,.31-.22,.22-.75,.21-1.14,.2-.07,0-.14,0-.2,0h-.66v-.94Z"/></g></svg>