<svg width="300" height="300" fill="currentColor" version="1.1" viewBox="-5.5 0 300 300" xmlns="http://www.w3.org/2000/svg">
 <path d="m11.623 0h265.75c9.0084 0 17.123 8.1149 17.123 17.123v265.75c0 9.0086-8.1149 17.123-17.123 17.123h-265.75c-9.0084 0-17.123-8.1149-17.123-17.123v-265.75c0-9.0084 8.1149-17.123 17.123-17.123zm195.92 168.45h41.438l1.8017-39.638h-43.241v-29.273c0-11.257 2.2485-17.57 16.662-17.57h25.223l0.90806-36.943s-11.257-1.8017-27.473-1.8017c-39.638 0-57.208 24.777-57.208 51.356v34.233h-29.273v39.638h29.273v109.9h41.886z" stroke-width="14.414"/>
</svg>
