<svg id="icon" fill="currentColor" version="1.1" viewBox="0 0 300 300"
    xmlns="http://www.w3.org/2000/svg">
    <defs>
        <style>.cls-1{fill:none;}</style>
    </defs>
    <title>finance</title>
    <g transform="scale(9.375)">
        <rect x="2" y="28" width="28" height="2" />
        <path
            d="m27 11a1 1 0 0 0 1-1v-3a1 1 0 0 0-0.66-0.94l-11-4a1 1 0 0 0-0.68 0l-11 4a1 1 0 0 0-0.66 0.94v3a1 1 0 0 0 1 1h1v13h-2v2h24v-2h-2v-13zm-21-3.3 10-3.64 10 3.64v1.3h-20zm12 16.3h-4v-13h4zm-10-13h4v13h-4zm16 13h-4v-13h4z" />
        <rect id="_Transparent_Rectangle_" class="cls-1" width="32" height="32"
            data-name="&lt;Transparent Rectangle&gt;" />
    </g>
</svg>