<svg version="1.1" viewBox="0 0 300 300" xmlns="http://www.w3.org/2000/svg">
    <g transform="scale(15)" fill="currentColor" fill-rule="evenodd">
        <g id="Dribbble-Light-Preview" transform="translate(-180,-7479)" fill="currentColor">
            <g id="icons" transform="translate(56,160)">
                <path id="linkedin-[#161]"
                    d="m144 7339h-4v-6.999c0-1.92-0.847-2.991-2.366-2.991-1.653 0-2.634 1.116-2.634 2.991v6.999h-4v-13h4v1.462s1.255-2.202 4.083-2.202c2.829 0 4.917 1.726 4.917 5.298zm-17.558-15.079c-1.349 0-2.442-1.102-2.442-2.461 0-1.358 1.093-2.46 2.442-2.46 1.348 0 2.441 1.102 2.441 2.46 1e-3 1.359-1.093 2.461-2.441 2.461zm-2.442 15.079h5v-13h-5z" />
            </g>
        </g>
    </g>
</svg>