<?xml version="1.0" encoding="UTF-8"?>
<svg id="a" xmlns="http://www.w3.org/2000/svg" viewBox="0 0 200 159.19">
  <defs>
    <style>
      .cls-1 {
        fill: #9e9ea2;
        stroke-width: 0px;
      }
    </style>
  </defs>
  <path class="cls-1" d="M23.13,120.62h12.31c4.42,0,7.76,1.14,10.04,3.42,2.03,2.17,3.09,5.08,2.95,8.06.16,3.34-1.37,6.54-4.08,8.51-2.66,1.82-5.83,2.73-9.05,2.59h-9.31v14.05h-2.85v-36.62ZM35.55,123.07h-9.57v17.72h9.36c2.85.18,5.65-.77,7.8-2.66,1.57-1.59,2.4-3.77,2.3-6.01.15-2.66-.95-5.24-2.97-6.97-1.99-1.48-4.45-2.22-6.93-2.08h0ZM35.55,123.07"/>
  <path class="cls-1" d="M55.11,137.67h-2.92c.16-2.38,1.45-4.53,3.46-5.8,2.04-1.27,4.42-1.89,6.82-1.79,2.75-.16,5.46.8,7.49,2.66,1.58,1.61,2.43,3.8,2.34,6.06v18.53h-2.24l-.45-4.43c-1.9,3.35-5.53,5.34-9.37,5.14-2.4.14-4.77-.63-6.62-2.18-1.48-1.48-2.27-3.51-2.18-5.6s1.05-4.04,2.65-5.39c2.22-1.54,4.79-2.51,7.47-2.82l8.06-1.32v-2.29c.1-1.84-.72-3.61-2.19-4.74-1.47-1.02-3.24-1.52-5.03-1.42-1.92-.12-3.81.45-5.35,1.61-1.13.95-1.83,2.3-1.93,3.77h0ZM60.99,155.69c2.3.03,4.52-.85,6.17-2.45,1.57-1.38,2.45-3.36,2.45-5.45v-4.83l-7.12,1.23c-2.42.2-4.73,1.09-6.67,2.54-1.01.94-1.55,2.28-1.48,3.66-.08,1.67.74,3.26,2.14,4.17,1.36.81,2.93,1.2,4.51,1.13h0ZM60.99,155.69"/>
  <path class="cls-1" d="M80.09,157.27h-2.74v-26.47h2.24l.4,5.09c1.39-3.9,3.87-5.87,7.43-5.87.93,0,1.86.13,2.75.42v2.69c-.94-.28-1.92-.43-2.9-.45-2.18,0-4.2,1.16-5.3,3.05-1.33,2.12-1.99,4.59-1.88,7.09v14.45ZM80.09,157.27"/>
  <path class="cls-1" d="M106.67,133.19h-6.17v18.79c0,2.48,1.16,3.72,3.47,3.72,1.09,0,2.17-.13,3.22-.4v2.17c-1.09.33-2.21.5-3.35.5-1.75.13-3.46-.52-4.69-1.77-.97-1.23-1.45-2.77-1.37-4.33v-18.68h-3.84v-2.38h3.82l.14-6.45h2.59v6.45h6.17v2.38ZM106.67,133.19"/>
  <path class="cls-1" d="M113.58,157.27h-2.74v-26.47h2.27l.31,4.53c.89-1.75,2.29-3.18,4.01-4.12,1.49-.79,3.15-1.19,4.83-1.18,2.62-.16,5.18.87,6.96,2.8,1.54,1.79,2.32,4.09,2.19,6.45v18h-2.77v-17.92c.14-2.02-.62-4-2.08-5.4-1.4-1.13-3.16-1.7-4.95-1.61-2.21-.03-4.33.9-5.8,2.56-1.48,1.58-2.29,3.68-2.24,5.85v16.52ZM113.58,157.27"/>
  <path class="cls-1" d="M156.86,150.04h2.98c-.59,2.48-2.1,4.64-4.22,6.06-5.2,3.19-11.92,2.3-16.11-2.13-2.24-2.82-3.38-6.35-3.22-9.94-.25-4,1.17-7.92,3.91-10.84,2.17-2.14,5.11-3.3,8.15-3.22,3.47-.16,6.8,1.36,8.96,4.08,2.16,3.09,3.22,6.82,2.99,10.59h-21.32c-.11,3.22,1.1,6.36,3.35,8.67,1.77,1.57,4.08,2.4,6.44,2.34,1.94.06,3.85-.55,5.4-1.72,1.28-.97,2.22-2.33,2.67-3.87h0ZM148.26,132.32c-2.53-.07-4.95,1.01-6.57,2.95-1.62,2.05-2.54,4.56-2.64,7.17h18.32c.06-2.96-1.07-5.82-3.14-7.94-1.63-1.47-3.77-2.26-5.96-2.21v.03ZM148.26,132.32"/>
  <path class="cls-1" d="M168.27,157.27h-2.75v-26.47h2.24l.4,5.09c1.4-3.9,3.87-5.87,7.44-5.87.93-.01,1.86.13,2.74.42v2.69c-.94-.28-1.92-.43-2.9-.45-2.18,0-4.2,1.16-5.3,3.05-1.32,2.12-1.97,4.59-1.87,7.09v14.45ZM168.27,157.27"/>
  <rect class="cls-1" x="57.29" y="70.27" width="8.62" height="34.18"/>
  <path class="cls-1" d="M135.45,80.13c-2.23-1.22-4.73-1.85-7.27-1.84-2.42,0-4.74.96-6.45,2.67-1.71,1.71-2.67,4.03-2.67,6.45s.96,4.74,2.67,6.45c1.71,1.71,4.03,2.67,6.45,2.67,2.54-.03,5.04-.68,7.27-1.9v9.17c-2.55.78-5.2,1.19-7.86,1.21-9.67,0-18.21-6.68-18.21-17.72,0-10.2,7.7-17.72,18.21-17.72,2.67.01,5.32.42,7.86,1.23v9.35ZM135.45,80.13"/>
  <path class="cls-1" d="M45.45,80.13c-2.21-1.23-4.7-1.86-7.23-1.84-2.42,0-4.74.96-6.45,2.67-1.71,1.71-2.67,4.03-2.67,6.45s.96,4.74,2.67,6.45c1.71,1.71,4.03,2.67,6.45,2.67,2.53-.03,5.01-.68,7.23-1.9v9.17c-2.55.79-5.2,1.19-7.86,1.21-9.67,0-18.19-6.68-18.19-17.72,0-10.2,7.7-17.72,18.19-17.72,2.67,0,5.32.42,7.86,1.23v9.35ZM45.45,80.13"/>
  <path class="cls-1" d="M180.63,87.36c.14,7.34-4.18,14.02-10.91,16.93-6.73,2.9-14.56,1.44-19.8-3.7-5.24-5.14-6.85-12.93-4.07-19.72,2.77-6.79,9.38-11.23,16.71-11.23,4.77-.14,9.4,1.67,12.81,5.01,3.41,3.35,5.31,7.94,5.25,12.71h0ZM162.56,78.37c-3.64-.03-6.94,2.15-8.35,5.51-1.41,3.36-.66,7.24,1.91,9.82,2.57,2.59,6.44,3.36,9.8,1.98,3.37-1.38,5.57-4.67,5.57-8.31.04-2.38-.88-4.69-2.56-6.38-1.68-1.69-3.98-2.64-6.37-2.61h0ZM162.56,78.37"/>
  <path class="cls-1" d="M98.62,78.05c-2.2-.61-4.46-.96-6.73-1.05-3.46,0-5.34,1.16-5.34,2.81,0,2.08,2.53,2.8,3.95,3.22l2.38.76c5.59,1.77,8.06,5.61,8.06,9.78,0,8.57-7.54,11.46-14.15,11.46-3.12-.03-6.23-.34-9.3-.93v-7.85c2.68.78,5.45,1.22,8.23,1.29,4.29,0,6.27-1.26,6.27-3.22s-1.71-2.72-3.85-3.4l-1.83-.59c-4.83-1.51-8.81-4.33-8.81-9.99,0-6.44,4.83-10.68,12.73-10.68,2.84.04,5.66.4,8.41,1.08l-.02,7.33ZM98.62,78.05"/>
  <path class="cls-1" d="M10.24,33.57c0-5.72-8.57-5.72-8.57,0v8.96c0,5.72,8.57,5.72,8.57,0v-8.96ZM10.24,33.57"/>
  <path class="cls-1" d="M33.75,21.79c-.33-5.37-8.23-5.37-8.56,0v20.74c-.15,2.47,1.81,4.55,4.28,4.55s4.43-2.08,4.28-4.55v-20.74ZM33.75,21.79"/>
  <path class="cls-1" d="M57.27,5.68C57.27-.04,48.7-.04,48.7,5.68v45.45c0,5.72,8.57,5.72,8.57,0V5.68ZM57.27,5.68"/>
  <path class="cls-1" d="M80.78,21.79c-.33-5.37-8.23-5.37-8.56,0v20.74c-.15,2.47,1.81,4.55,4.28,4.55s4.43-2.08,4.28-4.55v-20.74ZM80.78,21.79"/>
  <path class="cls-1" d="M104.27,33.57c0-2.36-1.91-4.27-4.27-4.27s-4.27,1.91-4.27,4.27v8.96c0,2.36,1.91,4.27,4.27,4.27s4.27-1.91,4.27-4.27v-8.96ZM104.27,33.57"/>
  <path class="cls-1" d="M127.79,21.79c0-5.69-8.54-5.69-8.54,0v20.74c0,5.69,8.54,5.69,8.54,0v-20.74ZM127.79,21.79"/>
  <path class="cls-1" d="M151.32,5.68c.15-2.46-1.8-4.53-4.26-4.53s-4.41,2.08-4.26,4.53v45.45c-.15,2.46,1.8,4.53,4.26,4.53s4.41-2.07,4.26-4.53V5.68ZM151.32,5.68"/>
  <path class="cls-1" d="M174.84,21.79c-.33-5.38-8.26-5.38-8.59,0v20.74c.33,5.39,8.26,5.39,8.59,0v-20.74ZM174.84,21.79"/>
  <path class="cls-1" d="M198.33,33.57c0-5.69-8.54-5.69-8.54,0v8.96c0,5.69,8.54,5.69,8.54,0v-8.96ZM198.33,33.57"/>
</svg>