<?xml version="1.0" encoding="UTF-8"?><svg id="a" xmlns="http://www.w3.org/2000/svg" viewBox="0 0 200 33.39"><defs><style>.b{fill:#007aff;}</style></defs><path class="b" d="M1.94,27.31h15.01c2.62,0,4.05-.25,4.89-.79,1.04-.64,1.63-1.73,1.63-3.01,0-1.53-.79-2.87-2.12-3.51-.69-.39-1.98-.59-3.56-.59h-6.07c-3.95,0-6.52-.69-8.25-2.17C1.5,15.51,.36,12.84,.36,9.98,.36,5.78,2.68,2.13,6.09,.94,7.57,.4,9.3,.25,13.15,.25H29.45V6.13H14.73c-3.11,.05-3.36,.05-4.39,.3-1.38,.34-2.22,1.63-2.22,3.36,0,1.48,.69,2.67,1.88,3.21,.99,.45,1.78,.54,4.15,.54h5.28c4.84,0,7.46,.74,9.38,2.72,1.48,1.48,2.47,4.4,2.47,7.26,0,3.51-1.63,6.76-4.2,8.35-1.63,1.04-3.7,1.33-8.59,1.33H1.94v-5.88ZM50.09,0C45.45,0,41.4,1.14,38.83,3.21c-3.26,2.57-4.99,7.36-4.99,13.68,0,4.39,.94,8,2.86,10.72,2.57,3.71,7.56,5.78,13.88,5.78,4.44,0,8.2-1.09,10.67-3.06,3.26-2.62,5.09-7.36,5.09-13.14v-.94l-.05-.93-.07-.9-.09-.89-.12-.86-.14-.84-.16-.81-.19-.78-.1-.38-.11-.37-.12-.37-.12-.36-.12-.35-.13-.34-.14-.33-.15-.33-.15-.31-.15-.31-.16-.3-.17-.29-.17-.28-.17-.28-.18-.26-.19-.25c-2.52-3.27-7.22-5.1-13.09-5.1h0Zm.05,5.58c5.88,0,8.49,3.46,8.49,11.16s-2.67,11.11-8.49,11.11-8.59-3.51-8.59-11.21v-.96l.03-.31v-.3l.03-.3,.02-.29,.02-.29,.03-.29,.03-.28,.03-.27,.03-.27,.04-.26,.04-.26,.04-.25,.04-.25,.05-.24,.05-.23,.05-.23,.06-.22,.06-.22,.06-.21,.07-.2,.07-.2,.08-.2,.08-.19,.08-.18,.08-.18,.08-.17,.09-.17,.09-.16,.09-.15c1.33-2.13,3.85-3.32,7.06-3.32h0ZM70.1,.25V33.19h7.01v-11.51h11.26c3.75,0,5.53-.49,7.45-2.12,2.27-1.92,3.66-5.14,3.66-8.59,0-2.91-1.04-5.63-2.96-7.71-2.17-2.42-4.2-3.01-9.98-3.01h-16.44Zm7.01,5.88h9.68c1.14,0,2.03,.1,2.57,.29,1.53,.54,2.42,2.12,2.42,4.3,0,1.83-.55,3.41-1.43,4.15l-.07,.06-.07,.06-.08,.06-.07,.06-.08,.05-.08,.05-.08,.05-.09,.05-.09,.04-.09,.04-.09,.04-.1,.04-.1,.04-.1,.03-.11,.03-.11,.03-.11,.02-.12,.02-.12,.02-.12,.02-.13,.02-.13,.02h-.14l-.14,.03h-.14l-.15,.02h-.15l-.16,.02h-10.2V6.13h0Zm52.35,27.06h-7.01v-13.58h-12.69v13.58h-7.01V.25h7.01V13.73h12.69V.25h7.01V33.19ZM149.91,0C145.26,0,141.21,1.14,138.65,3.21c-3.26,2.57-4.99,7.36-4.99,13.68,0,4.39,.94,8,2.87,10.72,2.56,3.71,7.55,5.78,13.88,5.78,4.45,0,8.2-1.09,10.66-3.06,3.26-2.62,5.09-7.36,5.09-13.14v-.94l-.05-.93-.07-.9-.09-.89-.12-.86-.14-.84-.17-.81-.19-.78-.11-.38-.11-.37-.11-.37-.12-.36-.12-.35-.13-.34-.14-.33-.14-.33-.15-.31-.16-.31-.16-.3-.17-.29-.17-.28-.17-.28-.19-.26-.19-.25C160.47,1.83,155.78,0,149.91,0h0Zm.05,5.58c5.87,0,8.49,3.46,8.49,11.16s-2.67,11.11-8.49,11.11-8.59-3.51-8.59-11.21v-.96l.02-.31v-.3l.03-.3,.02-.29,.02-.29,.02-.29,.03-.28,.03-.27,.03-.27,.03-.26,.04-.26,.04-.25,.05-.25,.05-.24,.05-.23,.05-.23,.06-.22,.06-.22,.06-.21,.07-.2,.07-.2,.07-.2,.08-.19,.08-.18,.09-.18,.08-.17,.09-.17,.09-.16,.1-.15c1.33-2.13,3.85-3.32,7.06-3.32h0Zm20.35,21.73h15.01c2.62,0,4.05-.25,4.89-.79,1.04-.64,1.63-1.73,1.63-3.01,0-1.53-.79-2.87-2.12-3.51-.69-.39-1.97-.59-3.56-.59h-6.08c-3.95,0-6.52-.69-8.25-2.17-1.97-1.73-3.11-4.4-3.11-7.26,0-4.2,2.32-7.85,5.73-9.04,1.48-.54,3.21-.69,7.06-.69h16.3V6.13h-14.72c-3.11,.05-3.36,.05-4.39,.3-1.38,.34-2.22,1.63-2.22,3.36,0,1.48,.69,2.67,1.88,3.21,.98,.45,1.77,.54,4.15,.54h5.28c4.84,0,7.46,.74,9.39,2.72,1.48,1.48,2.47,4.39,2.47,7.26,0,3.51-1.63,6.76-4.2,8.35-1.63,1.04-3.7,1.33-8.59,1.33h-16.54v-5.88h0Z"/></svg>