<?xml version="1.0" encoding="UTF-8"?>
<svg id="a" xmlns="http://www.w3.org/2000/svg" viewBox="0 0 200 51.4">
  <defs>
    <style>
      .cls-1 {
        fill: #5514b4;
      }

      .cls-1, .cls-2 {
        stroke-width: 0px;
      }

      .cls-2 {
        fill: #1d1d1b;
      }
    </style>
  </defs>
  <path class="cls-1" d="M29.77,17.74h11.63v3.41h-3.9v12.47h-3.83v-12.47h-3.9v-3.41ZM28.62,46.18c-11.3,0-20.48-9.18-20.48-20.48S17.32,5.22,28.62,5.22s20.48,9.18,20.48,20.48-9.18,20.48-20.48,20.48M28.62,49.05c12.89,0,23.35-10.46,23.35-23.35S41.51,2.35,28.62,2.35,5.27,12.81,5.27,25.7s10.46,23.35,23.35,23.35M24.68,28.76c0-1-.63-1.68-1.7-1.68h-2.57v3.32h2.57c1.07,0,1.7-.68,1.7-1.63M24.21,22.38c0-.84-.54-1.42-1.45-1.42h-2.36v2.9h2.36c.91,0,1.45-.58,1.45-1.47M28.55,28.95c0,3.01-2.12,4.67-5.16,4.67h-6.77v-15.88h6.32c3.06,0,5.14,1.56,5.14,4.44,0,1.31-.58,2.48-1.52,3.18,1.07.63,1.98,1.84,1.98,3.6"/>
  <g>
    <polygon class="cls-1" points="73.5 29.06 70.43 17.74 66.75 17.74 63.66 29.15 60.91 17.74 56.83 17.74 61.44 33.61 65.6 33.61 68.52 23.09 71.43 33.61 75.59 33.61 80.2 17.74 76.23 17.74 73.5 29.06"/>
    <polygon class="cls-1" points="91.36 23.98 84.75 23.98 84.75 17.74 80.93 17.74 80.93 33.61 84.75 33.61 84.75 27.24 91.36 27.24 91.36 33.61 95.19 33.61 95.19 17.74 91.36 17.74 91.36 23.98"/>
    <path class="cls-1" d="M110.77,19.8c-.76-.72-1.66-1.29-2.68-1.69-1.02-.4-2.14-.6-3.32-.6s-2.3.2-3.32.6c-1.02.4-1.93.97-2.68,1.69-.76.72-1.36,1.59-1.78,2.59-.42.99-.63,2.1-.63,3.28s.21,2.29.63,3.28c.42.99,1.02,1.86,1.78,2.59.76.72,1.66,1.29,2.68,1.69,1.02.4,2.14.6,3.32.6s2.3-.2,3.32-.6c1.02-.4,1.92-.97,2.68-1.69.76-.72,1.36-1.59,1.78-2.59.42-.99.63-2.1.63-3.28s-.21-2.29-.63-3.28c-.42-.99-1.02-1.86-1.78-2.59ZM109.27,25.67c0,.97-.2,1.83-.59,2.56-.39.72-.93,1.29-1.61,1.69-.68.4-1.45.61-2.3.61s-1.61-.2-2.28-.61c-.68-.4-1.22-.97-1.62-1.7-.4-.72-.6-1.58-.6-2.55s.2-1.84.6-2.57c.4-.73.94-1.3,1.62-1.69.68-.4,1.44-.6,2.28-.6s1.63.2,2.31.6c.68.4,1.22.97,1.61,1.69.39.73.59,1.59.59,2.57Z"/>
    <polygon class="cls-1" points="118.17 17.74 114.35 17.74 114.35 33.61 125.78 33.61 125.78 30.36 118.17 30.36 118.17 17.74"/>
    <polygon class="cls-1" points="130.86 27.24 136.57 27.24 136.57 23.98 130.86 23.98 130.86 20.99 139 20.99 139 17.74 127.03 17.74 127.03 33.61 139.22 33.61 139.22 30.36 130.86 30.36 130.86 27.24"/>
    <path class="cls-1" d="M151.66,26.2c-.64-.76-1.7-1.37-3.15-1.79l-2.47-.73c-.64-.19-1.09-.42-1.34-.67-.24-.24-.36-.53-.36-.88,0-.39.16-.7.5-.95.35-.26.95-.4,1.78-.4.7,0,1.36.13,1.95.39.6.26,1.11.6,1.51,1l.16.16,2.17-2.39-.15-.15c-.65-.65-1.48-1.19-2.46-1.62-.99-.43-2.08-.65-3.25-.65s-2.2.2-3.11.59c-.91.4-1.64.96-2.16,1.68-.52.73-.79,1.58-.79,2.55,0,1.06.33,1.98.97,2.73.63.74,1.6,1.31,2.87,1.69l2.47.73c.81.24,1.35.49,1.6.75.24.25.36.56.36.94,0,.42-.2.75-.6,1-.43.26-1.05.4-1.83.4-.85,0-1.65-.14-2.37-.42-.72-.28-1.39-.68-1.99-1.21l-.17-.15-2.1,2.53.15.14c.81.77,1.79,1.36,2.91,1.76,1.11.4,2.32.6,3.59.6.66,0,1.36-.09,2.07-.26.72-.17,1.4-.45,2.03-.82.64-.38,1.17-.88,1.57-1.5.4-.63.61-1.39.61-2.27,0-1.08-.33-2.01-.98-2.79Z"/>
    <path class="cls-1" d="M158.56,17.74l-6.37,15.87h3.95l1.32-3.44h6.1l1.32,3.44h4.06l-6.39-15.87h-4ZM162.43,27.16h-3.81l1.89-4.98,1.91,4.98Z"/>
    <polygon class="cls-1" points="173.68 17.74 169.85 17.74 169.85 33.61 181.29 33.61 181.29 30.36 173.68 30.36 173.68 17.74"/>
    <polygon class="cls-1" points="186.37 30.36 186.37 27.24 192.08 27.24 192.08 23.98 186.37 23.98 186.37 20.99 194.51 20.99 194.51 17.74 182.54 17.74 182.54 33.61 194.73 33.61 194.73 30.36 186.37 30.36"/>
  </g>
  <g>
    <path class="cls-2" d="M156.35,48.93v-8.07h3.51c.62,0,1.14.11,1.56.33.42.22.74.53.95.92s.32.84.32,1.34-.11.93-.32,1.33-.53.7-.95.93c-.42.23-.94.34-1.56.34h-2.1v2.88h-1.41ZM159.77,42.06h-2.02v2.78h2.02c.52,0,.9-.13,1.12-.39.23-.26.34-.59.34-.99s-.11-.74-.34-1c-.23-.26-.6-.39-1.12-.39Z"/>
    <path class="cls-2" d="M165.53,49.05c-.45,0-.86-.12-1.25-.36-.39-.24-.7-.59-.95-1.04-.24-.45-.36-.99-.36-1.62s.12-1.17.36-1.62c.24-.45.56-.8.95-1.04.39-.24.81-.36,1.25-.36.48,0,.89.12,1.25.37.36.25.63.58.81,1.01v-1.27h1.29v5.81h-1.29v-1.27c-.18.43-.46.77-.81,1.01-.36.25-.77.37-1.25.37ZM164.35,46.03c0,.59.16,1.05.47,1.38.31.33.72.5,1.22.5.26,0,.51-.06.74-.18.23-.12.42-.29.57-.51.15-.22.22-.47.22-.76v-.88c0-.29-.07-.55-.22-.76-.15-.22-.33-.38-.57-.5-.23-.12-.48-.18-.74-.18-.5,0-.91.16-1.22.49-.31.33-.47.79-.47,1.39Z"/>
    <path class="cls-2" d="M170.02,48.93v-5.81h1.31v1.31c.15-.42.38-.75.67-1.01.29-.26.63-.39,1.01-.39.08,0,.15,0,.23.01.08,0,.15.02.23.03v1.37c-.22-.05-.47-.08-.74-.08-.44,0-.77.12-1.01.36-.23.24-.35.57-.35,1v3.19h-1.36Z"/>
    <path class="cls-2" d="M174.88,47.13v-2.92h-1.04v-1.1h1.04v-1.83h1.36v1.83h1.53v1.1h-1.53v2.76c0,.33.07.57.22.72.15.15.35.22.61.22.11,0,.22,0,.35-.02.13-.01.27-.04.43-.07v1.1c-.2.05-.39.09-.57.11-.18.02-.35.03-.5.03-.62,0-1.1-.17-1.42-.5-.32-.33-.48-.81-.48-1.41Z"/>
    <path class="cls-2" d="M178.55,48.93v-5.81h1.31v1.22c.18-.42.45-.74.78-.98.34-.24.73-.36,1.18-.36.42,0,.79.1,1.1.29.31.2.55.47.72.81.17.35.25.75.25,1.2v3.62h-1.36v-3.43c0-.46-.11-.8-.34-1.01-.23-.21-.52-.32-.88-.32-.25,0-.49.06-.7.18-.21.12-.38.28-.51.47-.13.2-.19.42-.19.66v3.44h-1.36Z"/>
    <path class="cls-2" d="M190.26,48.07c-.31.28-.68.52-1.13.7-.45.18-.92.28-1.42.28-.58,0-1.11-.12-1.57-.37-.47-.25-.83-.6-1.1-1.05-.27-.45-.4-.99-.4-1.61s.13-1.11.39-1.57c.26-.45.61-.81,1.04-1.06s.93-.38,1.46-.38c.59,0,1.1.13,1.53.37.43.25.76.61.99,1.07.23.46.35,1,.35,1.63v.43h-4.39c.08.48.28.84.6,1.08.32.24.7.36,1.16.36.36,0,.7-.07,1.01-.2.32-.13.59-.3.82-.52l.65.84ZM187.55,44.1c-.39,0-.73.13-1.01.39-.28.26-.46.62-.52,1.1h3.06c-.05-.47-.21-.83-.48-1.1-.27-.26-.62-.39-1.04-.39Z"/>
    <path class="cls-2" d="M191.25,48.93v-5.81h1.31v1.31c.15-.42.38-.75.67-1.01.29-.26.63-.39,1.01-.39.08,0,.15,0,.23.01.08,0,.15.02.23.03v1.37c-.22-.05-.47-.08-.74-.08-.44,0-.77.12-1.01.36-.23.24-.35.57-.35,1v3.19h-1.36Z"/>
  </g>
</svg>