<?xml version="1.0" encoding="UTF-8"?><svg id="Layer_1" xmlns="http://www.w3.org/2000/svg" viewBox="0 0 200 80"><defs><style>.cls-1{fill:#252f3e;}.cls-2{fill:#f90;fill-rule:evenodd;}</style></defs><path class="cls-1" d="M72.42,29.66c0,1.56,.17,2.82,.46,3.74,.34,.92,.76,1.93,1.35,3.03,.21,.34,.29,.67,.29,.97,0,.42-.25,.84-.8,1.26l-2.65,1.77c-.38,.25-.76,.38-1.09,.38-.42,0-.84-.21-1.26-.59-.59-.63-1.09-1.3-1.51-1.98-.42-.71-.84-1.51-1.3-2.48-3.28,3.87-7.4,5.8-12.36,5.8-3.53,0-6.35-1.01-8.41-3.03-2.06-2.02-3.11-4.71-3.11-8.07,0-3.57,1.26-6.47,3.83-8.66,2.56-2.19,5.97-3.28,10.3-3.28,1.43,0,2.9,.13,4.46,.34s3.15,.55,4.83,.92v-3.07c0-3.19-.67-5.42-1.98-6.73-1.35-1.3-3.62-1.93-6.85-1.93-1.47,0-2.98,.17-4.54,.55s-3.07,.84-4.54,1.43c-.67,.29-1.18,.46-1.47,.55-.29,.08-.5,.13-.67,.13-.59,0-.88-.42-.88-1.3v-2.06c0-.67,.08-1.18,.29-1.47s.59-.59,1.18-.88c1.47-.76,3.24-1.39,5.3-1.89,2.06-.55,4.25-.8,6.56-.8,5,0,8.66,1.14,11.01,3.41,2.31,2.27,3.49,5.72,3.49,10.34v13.62h.08Zm-17.07,6.39c1.39,0,2.82-.25,4.33-.76,1.51-.5,2.86-1.43,3.99-2.69,.67-.8,1.18-1.68,1.43-2.69s.42-2.23,.42-3.66v-1.77c-1.22-.29-2.52-.55-3.87-.71s-2.65-.25-3.95-.25c-2.82,0-4.88,.55-6.26,1.68-1.39,1.14-2.06,2.73-2.06,4.83,0,1.98,.5,3.45,1.56,4.46,1.01,1.05,2.48,1.56,4.41,1.56Zm33.76,4.54c-.76,0-1.26-.13-1.6-.42-.34-.25-.63-.84-.88-1.64L76.75,6.03c-.25-.84-.38-1.39-.38-1.68,0-.67,.34-1.05,1.01-1.05h4.12c.8,0,1.35,.13,1.64,.42,.34,.25,.59,.84,.84,1.64l7.06,27.83,6.56-27.83c.21-.84,.46-1.39,.8-1.64,.34-.25,.92-.42,1.68-.42h3.36c.8,0,1.35,.13,1.68,.42,.34,.25,.63,.84,.8,1.64l6.64,28.17,7.27-28.17c.25-.84,.55-1.39,.84-1.64,.34-.25,.88-.42,1.64-.42h3.91c.67,0,1.05,.34,1.05,1.05,0,.21-.04,.42-.08,.67-.04,.25-.13,.59-.29,1.05l-10.13,32.5c-.25,.84-.55,1.39-.88,1.64s-.88,.42-1.6,.42h-3.62c-.8,0-1.35-.13-1.68-.42s-.63-.84-.8-1.68l-6.52-27.12-6.47,27.07c-.21,.84-.46,1.39-.8,1.68-.34,.29-.92,.42-1.68,.42h-3.62Zm54.02,1.14c-2.19,0-4.37-.25-6.47-.76-2.1-.5-3.74-1.05-4.83-1.68-.67-.38-1.14-.8-1.3-1.18-.17-.38-.25-.8-.25-1.18v-2.14c0-.88,.34-1.3,.97-1.3,.25,0,.5,.04,.76,.13,.25,.08,.63,.25,1.05,.42,1.43,.63,2.98,1.14,4.62,1.47,1.68,.34,3.32,.5,5,.5,2.65,0,4.71-.46,6.14-1.39,1.43-.92,2.19-2.27,2.19-3.99,0-1.18-.38-2.14-1.14-2.94-.76-.8-2.19-1.51-4.25-2.19l-6.1-1.89c-3.07-.97-5.34-2.4-6.73-4.29-1.39-1.85-2.1-3.91-2.1-6.1,0-1.77,.38-3.32,1.14-4.67,.76-1.35,1.77-2.52,3.03-3.45,1.26-.97,2.69-1.68,4.37-2.19,1.68-.5,3.45-.71,5.3-.71,.92,0,1.89,.04,2.82,.17,.97,.13,1.85,.29,2.73,.46,.84,.21,1.64,.42,2.4,.67,.76,.25,1.35,.5,1.77,.76,.59,.34,1.01,.67,1.26,1.05,.25,.34,.38,.8,.38,1.39v1.98c0,.88-.34,1.35-.97,1.35-.34,0-.88-.17-1.6-.5-2.4-1.09-5.09-1.64-8.07-1.64-2.4,0-4.29,.38-5.59,1.18s-1.98,2.02-1.98,3.74c0,1.18,.42,2.19,1.26,2.98,.84,.8,2.4,1.6,4.62,2.31l5.97,1.89c3.03,.97,5.21,2.31,6.52,4.04,1.3,1.72,1.93,3.7,1.93,5.89,0,1.81-.38,3.45-1.09,4.88-.76,1.43-1.77,2.69-3.07,3.7-1.3,1.05-2.86,1.81-4.67,2.35-1.89,.59-3.87,.88-6.01,.88Z"/><g><path class="cls-2" d="M151.08,62.15c-13.83,10.22-33.93,15.64-51.2,15.64-24.21,0-46.03-8.95-62.51-23.84-1.3-1.18-.13-2.77,1.43-1.85,17.82,10.34,39.81,16.61,62.55,16.61,15.34,0,32.2-3.19,47.71-9.75,2.31-1.05,4.29,1.51,2.02,3.19Z"/><path class="cls-2" d="M156.84,55.6c-1.77-2.27-11.69-1.09-16.19-.55-1.35,.17-1.56-1.01-.34-1.89,7.9-5.55,20.89-3.95,22.41-2.1,1.51,1.89-.42,14.88-7.82,21.1-1.14,.97-2.23,.46-1.72-.8,1.68-4.16,5.42-13.54,3.66-15.76Z"/></g></svg>