<?xml version="1.0" encoding="UTF-8"?><svg id="a" xmlns="http://www.w3.org/2000/svg" viewBox="0 0 200 66.31"><defs><style>.b{fill:#e22319;}</style></defs><path class="b" d="M114,28.37c-3.94,0-6.76,3.01-6.76,7.14s3.01,7.14,6.76,7.14c3.95,0,6.76-3.01,6.76-7.14,.19-3.95-2.82-7.14-6.76-7.14Z"/><path class="b" d="M56.32,27.8c-2.44,0-4.32,.94-5.45,2.63-.94,1.5-1.69,3.57-1.31,6.01l12.21-5.07c-.94-2.07-3.01-3.57-5.45-3.57Z"/><path class="b" d="M167.91,28.37c-3.95,0-6.76,3.01-6.76,7.14s3.01,7.14,6.76,7.14c3.94,0,6.76-3.01,6.76-7.14,.19-3.95-2.82-7.14-6.76-7.14Z"/><path class="b" d="M.53,0V66.31H199.47V0H.53ZM42.05,48.28H18.94V15.22h7.14v26.68h15.97v6.39Zm15.03-5.26c2.63,0,4.32-.38,7.33-2.63l4.32,3.19c-2.25,2.63-7.14,4.88-11.84,4.88-8.45,0-14.28-5.45-14.28-13.15s5.82-13.15,13.53-13.15c4.32,0,7.7,1.31,10.14,4.13,1.5,1.88,2.63,4.32,3.01,7.14l-17.85,7.51c1.31,1.31,3.19,2.07,5.64,2.07Zm40.39,5.26h-6.95v-14.47c0-3.38-3.01-5.45-5.82-5.45-3.76,0-5.82,2.82-5.82,5.45v14.65h-6.95V22.92h6.95v3.57c2.07-2.82,5.26-4.13,8.27-4.13,6.2,0,10.52,4.32,10.33,10.14v15.78Zm16.53,.38c-7.7,0-13.71-5.64-13.71-13.15s6.01-13.15,13.71-13.15,13.71,5.64,13.71,13.15-6.01,13.15-13.71,13.15Zm23.29-.38l-10.52-25.55h7.89l6.39,17.47,6.39-17.47h7.89l-10.33,25.55h-7.7Zm30.62,.38c-7.7,0-13.71-5.64-13.71-13.15s6.01-13.15,13.71-13.15,13.71,5.64,13.71,13.15c.19,7.51-5.82,13.15-13.71,13.15Zm16.72-3.38h-1.13v3.01h-.75v-3.01h-1.13v-.56h3.01v.56Zm4.51,3.19h-.75v-2.63l-1.13,1.69-1.13-1.69v2.63h-.75v-3.76h.75l1.13,1.69,1.13-1.69h.75v3.76Z"/></svg>