<svg xmlns="http://www.w3.org/2000/svg" xmlns:xlink="http://www.w3.org/1999/xlink" id="a" x="0px" y="0px" viewBox="0 0 200 86.8" style="enable-background:new 0 0 200 86.8;" xml:space="preserve"><style type="text/css">	.st0{fill:#080808;}</style><g>	<path class="st0" d="M38,37.8h-4.2V14.5c0-1.8,0.1-4.1,0.4-6.7H34c-0.4,1.6-0.8,2.7-1.1,3.4L20.6,37.8h-2.1L6.2,11.3  c-0.3-0.7-0.7-1.9-1.1-3.6H5c0.1,1.4,0.2,3.7,0.2,6.8v23.3H1.1V3.1h5.6l11.1,24.2c0.8,1.8,1.4,3.2,1.6,4.2h0.2  c0.8-2.2,1.4-3.6,1.7-4.3L32.6,3.1H38V37.8"></path>	<path class="st0" d="M49.7,37.8h-4.1V13h4.1V37.8 M50.4,4.1c0,0.7-0.3,1.4-0.8,1.9c-0.5,0.5-1.2,0.7-1.9,0.7  c-0.8,0-1.4-0.2-1.9-0.7C45.3,5.5,45,4.9,45,4.1c0-0.7,0.3-1.3,0.8-1.8c0.5-0.5,1.2-0.8,1.9-0.8c0.8,0,1.4,0.3,1.9,0.8  C50.2,2.8,50.4,3.4,50.4,4.1"></path>	<path class="st0" d="M74.2,36.7c-2,1.2-4.4,1.7-7.1,1.7c-2.4,0-4.5-0.5-6.3-1.6c-1.9-1-3.3-2.5-4.4-4.4c-1-1.9-1.6-4-1.6-6.4  c0-4.1,1.2-7.4,3.7-9.9c2.4-2.5,5.7-3.7,9.8-3.7c2.3,0,4.2,0.4,6,1.3v4.1c-1.9-1.3-4-1.9-6.1-1.9c-2.7,0-4.8,0.9-6.5,2.7  c-1.7,1.8-2.5,4.2-2.5,7.1c0,2.9,0.8,5.2,2.4,6.9c1.6,1.7,3.7,2.5,6.4,2.5c2.3,0,4.4-0.7,6.4-2.1V36.7"></path>	<path class="st0" d="M92.6,17c-0.7-0.5-1.8-0.8-3.2-0.8c-1.8,0-3.3,0.8-4.5,2.5c-1.1,1.7-1.7,3.8-1.7,6.5v12.6h-4.1V13h4.1v5.1h0.1  c0.6-1.7,1.5-3.1,2.6-4.1c1.2-1,2.6-1.5,4.1-1.5c1.1,0,1.9,0.1,2.5,0.3V17"></path>	<path class="st0" d="M114.3,25.5c0-3.1-0.7-5.5-2.2-7.2c-1.4-1.7-3.5-2.5-6.2-2.5c-2.7,0-4.8,0.9-6.3,2.6c-1.5,1.7-2.3,4.1-2.3,7.2  c0,3,0.8,5.3,2.3,7c1.6,1.7,3.6,2.5,6.3,2.5c2.7,0,4.7-0.8,6.2-2.5C113.6,30.9,114.3,28.6,114.3,25.5 M118.6,25.3  c0,3.9-1.2,7.1-3.5,9.5c-2.3,2.4-5.4,3.6-9.4,3.6c-3.8,0-6.9-1.2-9.1-3.5c-2.3-2.3-3.4-5.4-3.4-9.2c0-4.1,1.2-7.3,3.5-9.7  c2.3-2.4,5.6-3.6,9.7-3.6c3.8,0,6.8,1.2,9,3.5C117.5,18.2,118.6,21.3,118.6,25.3"></path>	<path class="st0" d="M137.8,31.2c0,2.1-0.9,3.9-2.6,5.2c-1.7,1.3-4,2-6.9,2c-2.4,0-4.6-0.5-6.4-1.5v-4.3c2,1.6,4.3,2.4,6.7,2.4  c3.3,0,4.9-1.2,4.9-3.5c0-0.9-0.3-1.7-1-2.3c-0.6-0.6-2.1-1.4-4.4-2.4c-2.3-0.9-3.9-1.9-4.8-3c-0.9-1.1-1.4-2.5-1.4-4.3  c0-2.1,0.9-3.8,2.6-5.1c1.7-1.4,3.9-2.1,6.5-2.1c2,0,3.9,0.4,5.5,1.2v4c-1.7-1.2-3.6-1.8-5.8-1.8c-1.4,0-2.5,0.3-3.3,1  c-0.8,0.6-1.2,1.5-1.2,2.5c0,1.1,0.3,1.9,1,2.5c0.6,0.6,2,1.3,4,2.1c2.5,1,4.2,2.1,5.2,3.1C137.3,28.1,137.8,29.5,137.8,31.2"></path>	<path class="st0" d="M161.7,25.5c0-3.1-0.7-5.5-2.2-7.2c-1.4-1.7-3.5-2.5-6.2-2.5c-2.7,0-4.8,0.9-6.3,2.6c-1.5,1.7-2.3,4.1-2.3,7.2  c0,3,0.8,5.3,2.3,7c1.6,1.7,3.6,2.5,6.3,2.5c2.7,0,4.7-0.8,6.2-2.5C161,30.9,161.7,28.6,161.7,25.5 M166,25.3  c0,3.9-1.2,7.1-3.5,9.5c-2.3,2.4-5.4,3.6-9.4,3.6c-3.8,0-6.9-1.2-9.1-3.5c-2.3-2.3-3.4-5.4-3.4-9.2c0-4.1,1.2-7.3,3.5-9.7  c2.3-2.4,5.6-3.6,9.7-3.6c3.8,0,6.8,1.2,9,3.5C164.9,18.2,166,21.3,166,25.3"></path>	<path class="st0" d="M182.9,4.6c-0.8-0.4-1.7-0.7-2.7-0.7c-2.9,0-4.3,1.8-4.3,5.3V13h6v3.4h-6v21.4h-4.1V16.4h-4.4V13h4.4V9  c0-2.5,0.8-4.6,2.3-6.1c1.5-1.6,3.5-2.3,5.9-2.3c1.3,0,2.3,0.1,3,0.4V4.6"></path>	<path class="st0" d="M197.9,37.6c-1,0.5-2.3,0.8-3.9,0.8c-4.5,0-6.8-2.4-6.8-7.3V16.4h-4.4V13h4.4V7l4.1-1.3V13h6.5v3.4h-6.5v14  c0,1.7,0.3,2.8,0.9,3.5c0.6,0.7,1.6,1.1,2.9,1.1c1,0,1.9-0.3,2.7-0.8V37.6"></path>	<path class="st0" d="M65.4,61.5c0-4.6-2.8-6.9-8.5-6.9h-5v14.2h4.4c2.9,0,5.1-0.6,6.7-1.9C64.6,65.7,65.4,63.9,65.4,61.5   M69.8,61.3c0,3.4-1.2,6.1-3.6,8.1c-2.4,2.1-5.6,3.1-9.5,3.1H52v13.2h-4.2V50.9h9.9c3.9,0,6.9,0.9,9,2.7  C68.8,55.5,69.8,58,69.8,61.3"></path>	<path class="st0" d="M87.3,73.1L81,74c-2.1,0.3-3.6,0.8-4.5,1.5c-0.9,0.7-1.3,1.8-1.3,3.3c0,1.2,0.5,2.2,1.4,3  c0.9,0.8,2.1,1.1,3.6,1.1c2.1,0,3.7-0.7,5.1-2.1c1.3-1.4,2-3.1,2-5.2V73.1 M91.4,85.7h-4.1v-3.9h-0.1c-1.8,3-4.4,4.5-7.9,4.5  c-2.5,0-4.5-0.6-6-2c-1.5-1.3-2.2-3-2.2-5.2c0-4.6,2.8-7.3,8.5-8.1l7.7-1c0-4.2-1.8-6.3-5.3-6.3c-3.1,0-5.9,1-8.4,3v-4.1  c0.8-0.5,2.1-1.1,3.9-1.6c1.8-0.5,3.5-0.8,4.9-0.8c6.1,0,9.1,3.1,9.1,9.3V85.7"></path>	<path class="st0" d="M111.3,64.9c-0.7-0.5-1.8-0.8-3.2-0.8c-1.8,0-3.3,0.8-4.5,2.5c-1.1,1.7-1.7,3.8-1.7,6.5v12.6h-4.1V60.9h4.1V66  h0.1c0.6-1.7,1.5-3.1,2.6-4.1c1.2-1,2.6-1.5,4.1-1.5c1.1,0,1.9,0.1,2.5,0.3V64.9"></path>	<path class="st0" d="M128,85.4c-1,0.5-2.3,0.8-3.9,0.8c-4.5,0-6.8-2.4-6.8-7.3V64.2h-4.4v-3.4h4.4v-6.1l4.1-1.3v7.3h6.5v3.4h-6.5  v14c0,1.7,0.3,2.8,0.9,3.5c0.6,0.7,1.6,1.1,2.9,1.1c1,0,1.9-0.3,2.7-0.8V85.4"></path>	<path class="st0" d="M153.7,85.7h-4.1V71.5c0-5.2-2-7.9-6-7.9c-2,0-3.7,0.7-5.1,2.2c-1.4,1.5-2.1,3.4-2.1,5.7v14.1h-4.1V60.9h4.1  V65h0.1c1.9-3.1,4.8-4.7,8.5-4.7c2.8,0,5,0.9,6.5,2.7c1.5,1.8,2.2,4.3,2.2,7.6V85.7"></path>	<path class="st0" d="M176.5,70.9c0-2.3-0.6-4.1-1.7-5.3c-1.1-1.3-2.7-1.9-4.7-1.9c-1.9,0-3.6,0.7-4.9,2c-1.4,1.3-2.2,3.1-2.6,5.3  H176.5 M180.7,74.3h-18.2c0.1,2.8,0.8,4.9,2.3,6.4c1.5,1.5,3.5,2.2,6.1,2.2c2.9,0,5.6-0.9,8-2.7v3.7c-2.3,1.6-5.2,2.4-9,2.4  c-3.7,0-6.6-1.1-8.6-3.4c-2.1-2.3-3.1-5.4-3.1-9.5c0-2.5,0.5-4.7,1.5-6.7c1-2,2.5-3.6,4.3-4.7c1.8-1.1,3.8-1.7,6-1.7  c3.3,0,6,1,7.8,3.1c1.9,2.1,2.8,5,2.8,8.8V74.3"></path>	<path class="st0" d="M198.9,64.9c-0.7-0.5-1.8-0.8-3.2-0.8c-1.8,0-3.3,0.8-4.5,2.5c-1.1,1.7-1.7,3.8-1.7,6.5v12.6h-4.1V60.9h4.1V66  h0.1c0.6-1.7,1.5-3.1,2.6-4.1c1.2-1,2.6-1.5,4.1-1.5c1.1,0,1.9,0.1,2.5,0.3V64.9"></path></g></svg>