<svg xmlns="http://www.w3.org/2000/svg" xmlns:xlink="http://www.w3.org/1999/xlink" id="Layer_1" x="0px" y="0px" viewBox="0 0 200 76.2" style="enable-background:new 0 0 200 76.2;" xml:space="preserve"><style type="text/css">	.st0{fill:url(#SVGID_1_);}	.st1{fill:#373737;}	.st2{fill:#009ADE;}	.st3{fill:#FFFFFF;}</style><g>			<linearGradient id="SVGID_1_" gradientUnits="userSpaceOnUse" x1="25.6087" y1="12.8964" x2="174.3913" y2="12.8964" gradientTransform="matrix(1 0 0 -1 0 77.2756)">		<stop offset="0" style="stop-color:#CDCDCD"></stop>		<stop offset="0.4944" style="stop-color:#F3F3F3"></stop>		<stop offset="1" style="stop-color:#CCCCCC"></stop>	</linearGradient>	<rect x="25.6" y="52.8" class="st0" width="148.8" height="23.2"></rect>	<g>		<g>			<rect x="25.6" y="0.2" class="st1" width="148.8" height="52.6"></rect>			<path class="st2" d="M56.8,22.8c1.1-0.1,2.1-0.3,2.9-0.7c0.9-0.4,1.7-0.9,2.3-1.6c0.5-0.7,0.9-1.6,0.9-2.8c0-1.7-0.7-3.1-1.9-4    s-2.7-1.5-4.2-1.5c-2.3,0-3.8,0.7-5,2c-1.2,1.3-1.7,3.1-1.6,5.2h-8.2c0.1-2.1,0.5-4,1.2-5.7c0.7-1.7,1.7-3.2,3.1-4.4    s2.8-2.1,4.6-2.8c1.9-0.7,3.8-1.1,6.1-1.1c1.7,0,3.5,0.3,5.2,0.7c1.7,0.4,3.3,1.2,4.6,2.1c1.3,0.9,2.5,2.1,3.3,3.6    c0.9,1.3,1.3,3.1,1.3,4.8c0,2-0.5,3.7-1.5,5.2c-1.1,1.5-2.5,2.5-4.5,3.1V25c2.4,0.5,4.2,1.6,5.6,3.2c1.3,1.7,2,3.6,2,6    c0,2.1-0.4,4-1.3,5.7c-0.9,1.7-2.1,3.1-3.6,4.1s-3.2,2-5.2,2.5c-2,0.5-4,0.9-6.1,0.9c-2.4,0-4.6-0.3-6.6-0.9    c-2-0.7-3.7-1.6-5-2.9c-1.5-1.2-2.5-2.8-3.2-4.6c-0.8-1.9-1.1-3.8-1.1-6.2h8.4c0,1.1,0.3,2.1,0.5,3.1c0.3,0.9,0.8,1.9,1.5,2.5    s1.3,1.3,2.3,1.7c0.9,0.4,2,0.7,3.3,0.7c2,0,3.6-0.5,5-1.7c1.3-1.2,2-2.7,2-4.6c0-1.6-0.3-2.7-0.9-3.6c-0.7-0.8-1.5-1.5-2.5-1.7    c-0.9-0.4-2.1-0.5-3.2-0.7c-1.2,0-2.3-0.1-3.3-0.1v-5.8C54.8,22.8,55.7,22.8,56.8,22.8"></path>			<path class="st3" d="M98.3,10.8c4.9,0,9.7,1.9,13.3,5l0.9,0.8V9.8l-0.3-0.1c-4.1-2.7-8.5-4-13.7-4c-13.1,0-23.9,9.4-23.9,21.1    c0,11.4,10.8,20.8,23.9,20.8c4.8,0,9.7-1.5,13.7-4l0.3-0.1v-6.9l-0.9,0.8c-3.7,3.2-8.5,5-13.1,5c-9.6,0-17.7-7.3-17.7-15.8    C80.8,18,88.8,10.8,98.3,10.8"></path>			<polygon class="st2" points="112.5,18.7 112.5,34.8 120.1,26.5    "></polygon>			<polygon class="st3" points="158.1,47.3 140.4,27 158.1,6.7 148.8,6.7 135.8,21.6 122.8,6.7 113.3,6.7 131.1,27 113.3,47.3     122.6,47.3 135.8,32.3 148.8,47.3    "></polygon>			<path class="st3" d="M159.3,45.1c0-1.3,1.1-2.3,2.4-2.3c1.3,0,2.4,1.1,2.4,2.3c0,1.3-1.1,2.3-2.4,2.3    C160.3,47.3,159.3,46.3,159.3,45.1 M163.8,45.1c0-1.1-0.9-1.9-2-1.9s-2,0.8-2,1.9c0,1.1,0.9,1.9,2,1.9S163.8,46.1,163.8,45.1     M162.8,46.3h-0.4l-0.8-1.2h-0.4v1.2h-0.4v-2.5h1.2c0.5,0,0.9,0.1,0.9,0.7s-0.4,0.7-0.8,0.7L162.8,46.3z M161.6,44.8    c0.3,0,0.9,0,0.9-0.4c0-0.3-0.4-0.3-0.7-0.3h-0.7v0.7H161.6z"></path>		</g>		<g>			<g>				<path class="st1" d="M39.8,60.7c0.7-0.1,1.5-0.1,2.7-0.1c1.3,0,2.3,0.3,2.8,0.8c0.7,0.5,0.9,1.3,0.9,2.1c0,0.9-0.3,1.7-0.8,2.3     c-0.7,0.7-1.7,0.9-2.9,0.9c-0.3,0-0.4,0-0.7,0v3.5h-2.1v-9.4H39.8z M41.9,65.1c0.1,0,0.4,0,0.7,0c1.1,0,1.7-0.7,1.7-1.6     c0-0.8-0.5-1.5-1.6-1.5c-0.4,0-0.7,0-0.8,0.1V65.1z"></path>				<path class="st1" d="M47.6,60.7h2.1v7.7h3.5v1.7h-5.6C47.6,70.2,47.6,60.7,47.6,60.7z"></path>				<path class="st1" d="M56.4,67.8l-0.7,2.4h-2.1l2.7-9.4h2.7l2.7,9.4h-2.3l-0.7-2.4H56.4z M58.5,66.2l-0.5-2     c-0.1-0.5-0.3-1.3-0.4-1.9l0,0c-0.1,0.5-0.3,1.3-0.4,1.9l-0.5,2H58.5z"></path>				<path class="st1" d="M64.5,62.5h-2.4v-1.7h6.8v1.7h-2.4v7.7h-2V62.5z"></path>				<path class="st1" d="M72.2,60.7v9.4h-2.1v-9.4H72.2z"></path>				<path class="st1" d="M73.9,70.2v-9.4h2.3l1.9,3.6c0.5,0.9,1.1,2.1,1.5,3.1l0,0c-0.1-1.2-0.1-2.5-0.1-4.1v-2.5h1.9v9.4h-2.1     l-1.9-3.6c-0.5-0.9-1.1-2.1-1.5-3.2l0,0c0,1.2,0.1,2.5,0.1,4.2v2.7h-2V70.2z"></path>				<path class="st1" d="M85.2,60.7v5.7c0,1.6,0.5,2.3,1.5,2.3c0.9,0,1.5-0.7,1.5-2.3v-5.7h2.1v5.4c0,2.8-1.3,4.1-3.7,4.1     c-2.3,0-3.6-1.3-3.6-4.1v-5.4H85.2z"></path>				<path class="st1" d="M99.5,66.6c0-1.1-0.1-2.4-0.1-3.7l0,0c-0.3,1.2-0.7,2.4-0.9,3.5l-1.1,3.6h-1.6l-0.9-3.6     c-0.3-1.1-0.5-2.3-0.8-3.5l0,0c0,1.2-0.1,2.7-0.1,3.7l-0.3,3.6h-1.9l0.7-9.4h2.7l0.9,3.2c0.3,1.1,0.5,2.3,0.8,3.3l0,0     c0.3-1.1,0.5-2.3,0.8-3.3l0.9-3.2h2.7l0.5,9.4h-2L99.5,66.6z"></path>				<path class="st1" d="M105.9,60.7c0.7-0.1,1.5-0.1,2.7-0.1c1.3,0,2.3,0.3,2.8,0.8c0.7,0.5,0.9,1.3,0.9,2.1c0,0.9-0.3,1.7-0.8,2.3     c-0.7,0.7-1.7,0.9-2.9,0.9c-0.3,0-0.4,0-0.7,0v3.5h-2.1v-9.4H105.9z M108,65.1c0.1,0,0.4,0,0.7,0c1.1,0,1.7-0.7,1.7-1.6     c0-0.8-0.5-1.5-1.6-1.5c-0.4,0-0.7,0-0.8,0.1C108,62.2,108,65.1,108,65.1z"></path>				<path class="st1" d="M115.7,67.8l-0.7,2.4h-2.1l2.7-9.4h2.7l2.7,9.4h-2l-0.7-2.4H115.7z M118,66.2l-0.5-2     c-0.1-0.5-0.3-1.3-0.4-1.9l0,0c-0.1,0.5-0.3,1.3-0.4,1.9l-0.5,2H118z"></path>				<path class="st1" d="M122.2,60.9c0.7-0.1,1.6-0.1,2.7-0.1c1.3,0,2.3,0.1,2.9,0.8c0.5,0.5,0.8,1.1,0.8,2c0,1.2-0.8,2-1.6,2.4l0,0     c0.7,0.3,1.1,0.9,1.2,1.9c0.3,1.1,0.5,2.3,0.7,2.7h-2c-0.1-0.3-0.4-1.1-0.7-2.3s-0.7-1.5-1.5-1.5h-0.5v3.7h-2.1v-9.6H122.2z      M124.4,64.8h0.7c1.1,0,1.6-0.5,1.6-1.5c0-0.8-0.5-1.3-1.5-1.3c-0.4,0-0.7,0-0.8,0.1V64.8z"></path>				<path class="st1" d="M131.9,62.5h-2.4v-1.7h6.8v1.7h-2.4v7.7h-2.1v-7.7H131.9z"></path>				<path class="st1" d="M137.4,70.2v-9.4h2.3l1.9,3.6c0.5,0.9,1.1,2.1,1.5,3.1l0,0c-0.1-1.2-0.1-2.5-0.1-4.1v-2.5h1.9v9.4h-2.1     l-1.9-3.6c-0.5-0.9-1.1-2.1-1.5-3.2l0,0c0,1.2,0.1,2.5,0.1,4.2v2.7h-2V70.2z"></path>				<path class="st1" d="M151.8,66h-3.2v2.4h3.6v1.7h-5.6v-9.4h5.4v1.7h-3.3v2h3.2V66H151.8z"></path>				<path class="st1" d="M153.6,60.9c0.7-0.1,1.6-0.1,2.7-0.1c1.3,0,2.3,0.1,2.9,0.8c0.5,0.5,0.8,1.1,0.8,2c0,1.2-0.8,2-1.6,2.4l0,0     c0.7,0.3,1.1,0.9,1.2,1.9c0.3,1.1,0.5,2.3,0.7,2.7h-2.1c-0.1-0.3-0.4-1.1-0.7-2.3s-0.7-1.5-1.5-1.5h-0.5v3.7h-2.1v-9.6H153.6z      M155.7,64.8h0.7c1.1,0,1.6-0.5,1.6-1.5c0-0.8-0.5-1.3-1.5-1.3c-0.4,0-0.7,0-0.8,0.1L155.7,64.8L155.7,64.8z"></path>			</g>		</g>	</g></g></svg>